<?xml version="1.0" encoding="UTF-8"?>
<svg version="1.1" xmlns="http://www.w3.org/2000/svg" width="512" height="512">
<path d="M0 0 C0.75475616 0.2507579 1.50951233 0.50151581 2.28713989 0.75987244 C4.77121622 1.5875933 7.25077085 2.42806107 9.73046875 3.26879883 C11.5024334 3.86235097 13.27465609 4.45513327 15.04711914 5.04719543 C19.72925512 6.61364361 24.40762265 8.19106717 29.08532715 9.77069092 C33.68604219 11.32200722 38.29050027 12.86212394 42.89453125 14.40356445 C61.94099953 20.78663696 80.9599316 27.24901456 99.96543312 33.7529335 C115.15251748 38.94942853 130.36813202 44.05335635 145.60546875 49.10083008 C154.04807094 51.89824035 162.48757559 54.70431753 170.91796875 57.53833008 C171.70050018 57.79999969 172.48303162 58.06166931 173.28927612 58.33126831 C175.26500469 58.99517301 177.23625489 59.67236609 179.20703125 60.35083008 C180.22361816 60.69887695 181.24020508 61.04692383 182.28759766 61.40551758 C187.90736153 63.82576116 191.66898886 67.52384639 194.85546875 72.66333008 C196.77138061 77.84756217 197.06369804 82.69274335 197.05168152 88.18019104 C197.05394708 88.94214324 197.05621263 89.70409545 197.05854684 90.48913711 C197.06486953 93.03883475 197.06405854 95.58847899 197.06323242 98.13818359 C197.06622531 99.96851673 197.06962813 101.79884923 197.07341003 103.62918091 C197.08224881 108.60321295 197.08458832 113.57722778 197.08522582 118.55126691 C197.08593728 121.6662948 197.08807361 124.78131833 197.09072304 127.89634514 C197.09998152 138.78636832 197.10405798 149.67637926 197.10327148 160.56640625 C197.10267306 170.67662976 197.11317719 180.7867995 197.12901515 190.89700943 C197.14216016 199.60223659 197.14745236 208.30744635 197.14681607 217.01268333 C197.14656279 222.19998337 197.14931836 227.38723578 197.15999413 232.57452583 C197.16979082 237.46897019 197.16967644 242.36332263 197.16247749 247.25777054 C197.1614453 249.03770141 197.16371141 250.81763835 197.16983795 252.59755898 C197.2971198 292.19780701 187.9994856 328.16624317 162.91796875 359.53833008 C162.49467285 360.07586914 162.07137695 360.6134082 161.63525391 361.16723633 C151.48376417 373.97361005 139.79456361 386.20831213 126.86938477 396.22998047 C124.78138524 397.86303825 122.71980912 399.51037333 120.67211914 401.19213867 C111.77760061 408.4703751 102.58387699 415.04631437 92.98046875 421.35083008 C91.5221001 422.31460209 90.06385007 423.27855361 88.60571289 424.24267578 C70.03714039 436.49100025 51.1074156 448.07570784 31.95922852 459.38891602 C23.02147974 464.67284195 14.13260735 470.02932775 5.29296875 475.47583008 C3.69412842 476.45990845 3.69412842 476.45990845 2.06298828 477.46386719 C0.57968018 478.38051147 0.57968018 478.38051147 -0.93359375 479.31567383 C-1.84270508 479.87496582 -2.75181641 480.43425781 -3.68847656 481.01049805 C-5.67823505 482.28058256 -7.53786855 483.62032711 -9.41796875 485.04223633 C-12.08203125 486.53833008 -12.08203125 486.53833008 -15 486.57739258 C-18.89780778 485.26330276 -22.03870251 483.22920995 -25.39453125 480.91333008 C-32.5057037 476.16306688 -39.73685 471.66784594 -47.08203125 467.28833008 C-48.14196289 466.65523926 -49.20189453 466.02214844 -50.29394531 465.36987305 C-53.55537077 463.42388593 -56.81854982 461.4808669 -60.08203125 459.53833008 C-118.65999496 424.63468867 -118.65999496 424.63468867 -143.08203125 405.53833008 C-143.88898438 404.9118457 -144.6959375 404.28536133 -145.52734375 403.63989258 C-148.07136147 401.63576286 -150.58120384 399.59611193 -153.08203125 397.53833008 C-153.58395996 397.12808594 -154.08588867 396.7178418 -154.60302734 396.29516602 C-169.61619039 383.96341105 -183.8394108 370.45115895 -195.08203125 354.53833008 C-195.76555664 353.5727417 -195.76555664 353.5727417 -196.46289062 352.58764648 C-218.26406424 321.33679176 -225.22098705 288.42420257 -225.24316406 250.85571289 C-225.24780267 249.00635176 -225.2528287 247.15699157 -225.25820923 245.30763245 C-225.27122414 240.32242011 -225.27775519 235.33722115 -225.28221989 230.35199451 C-225.28516487 227.232319 -225.28927199 224.11264703 -225.29372406 220.99297333 C-225.30736249 211.21609779 -225.31705021 201.43923051 -225.32092595 191.66234612 C-225.32541524 180.40335288 -225.34301881 169.14448052 -225.37192655 157.88552403 C-225.39355265 149.15822708 -225.40363052 140.43096416 -225.40496707 131.7036407 C-225.40601327 126.50057348 -225.41188338 121.29762046 -225.42978668 116.0945816 C-225.4462862 111.20577976 -225.44841374 106.31717787 -225.43964767 101.42835808 C-225.43887865 99.63895824 -225.44320223 97.84954754 -225.45310593 96.06017494 C-225.56691279 74.21100381 -225.56691279 74.21100381 -217.84156799 66.01113892 C-210.93430644 60.22946036 -200.57158151 58.21001652 -192.1484375 55.38989258 C-190.68396574 54.89609144 -189.21961813 54.40192197 -187.75538635 53.90740967 C-183.85862769 52.59259295 -179.96008055 51.28315909 -176.06113434 49.97484589 C-172.00634276 48.61321249 -167.95325379 47.24652824 -163.89990234 45.88061523 C-145.38311059 39.6436465 -126.85371564 33.44473511 -108.31030273 27.28735352 C-97.45888842 23.68132646 -86.63092071 20.01005468 -75.81292725 16.30502319 C-73.24848959 15.42751642 -70.6832401 14.55242938 -68.11767578 13.67822266 C-66.44171132 13.10691219 -64.76576722 12.53554203 -63.08984375 11.96411133 C-62.26533722 11.68300003 -61.44083069 11.40188873 -60.59133911 11.11225891 C-55.51008494 9.37671704 -50.43737734 7.61820838 -45.36935425 5.84442139 C-42.06285614 4.69062208 -38.75144606 3.55141464 -35.43890381 2.4151001 C-33.88960803 1.87983777 -32.34251552 1.33814717 -30.7979126 0.78948975 C-28.66888701 0.03390396 -26.53314021 -0.69857619 -24.39453125 -1.42651367 C-23.19441406 -1.84537842 -21.99429688 -2.26424316 -20.7578125 -2.69580078 C-13.55980682 -4.19554466 -6.83287314 -2.34376991 0 0 Z " fill="#0062D9" transform="translate(270.08203125,14.461669921875)"/>
<path d="M0 0 C0 15.51 0 31.02 0 47 C3.63 47.33 7.26 47.66 11 48 C27.54810896 51.15202075 42.91127882 60.00847163 52.9375 73.6328125 C64.89445796 91.72286527 66.45121879 108.21333859 66.1875 129.3125 C66.1724227 131.42121438 66.1587397 133.52993921 66.14648438 135.63867188 C66.11372769 140.75937674 66.06211407 145.87957055 66 151 C67.918125 150.91298828 67.918125 150.91298828 69.875 150.82421875 C71.58329656 150.77728753 73.29163295 150.731791 75 150.6875 C76.25876953 150.6246582 76.25876953 150.6246582 77.54296875 150.56054688 C85.01042432 150.41582874 89.57292358 152.87725855 95.0234375 157.84375 C95.46945312 158.3903125 95.91546875 158.936875 96.375 159.5 C96.83648437 160.0465625 97.29796875 160.593125 97.7734375 161.15625 C100.34671196 165.02435683 101.24984619 168.55492632 101.27415466 173.16557312 C101.28412979 174.18452164 101.29410492 175.20347015 101.30438232 176.2532959 C101.305047 177.36039917 101.30571167 178.46750244 101.30639648 179.6081543 C101.31472 180.78275711 101.32304352 181.95735992 101.33161926 183.16755676 C101.35156686 186.38273782 101.36235687 189.59776868 101.36744571 192.8130033 C101.37109653 194.82574882 101.37734046 196.83846973 101.3844471 198.85120583 C101.40892851 205.88478303 101.42198974 212.91828668 101.42553711 219.9519043 C101.42916691 226.48841905 101.45902513 233.02446269 101.50094169 239.56083363 C101.53574715 245.18738731 101.55108734 250.8137857 101.55178314 256.4404462 C101.5525728 259.79447301 101.56356442 263.14763997 101.58978081 266.50162315 C101.61674196 270.24978559 101.61185348 273.996662 101.59936523 277.74487305 C101.62161667 279.39034622 101.62161667 279.39034622 101.64431763 281.06906128 C101.57010955 288.92068891 99.85733456 295.57085976 94.5926733 301.61594677 C88.55645251 307.05120752 82.37667601 308.45234457 74.58618164 308.34057617 C73.76262649 308.34093778 72.93907133 308.34129938 72.09055996 308.34167194 C69.44683748 308.3394477 66.80376396 308.31667148 64.16015625 308.29296875 C62.51916814 308.28855326 60.8781758 308.28549558 59.23718262 308.28381348 C53.17889029 308.26813854 47.12068865 308.22625466 41.0625 308.1875 C20.7365625 308.0946875 20.7365625 308.0946875 0 308 C0 344.3 0 380.6 0 418 C-4.1197129 416.35211484 -7.73068818 414.51093364 -11.50390625 412.24609375 C-12.13077332 411.87363525 -12.75764038 411.50117676 -13.40350342 411.11743164 C-15.45883682 409.8946567 -17.51083707 408.66642223 -19.5625 407.4375 C-21.00473832 406.57614758 -22.44704062 405.71490227 -23.8894043 404.85375977 C-26.83873648 403.09146112 -29.7862376 401.32614965 -32.73242188 399.55859375 C-35.42152068 397.94531573 -38.112551 396.33539814 -40.80664062 394.73046875 C-94.18520207 362.92419877 -155.76489329 326.22694674 -175.140625 263.42578125 C-177.94016203 252.26580863 -178.27558337 241.74896917 -178.22705078 230.30981445 C-178.22648579 228.43629462 -178.22680494 226.56277434 -178.22793579 224.68925476 C-178.22850688 219.63217685 -178.21679219 214.57519485 -178.20278788 209.51813912 C-178.19023972 204.22239948 -178.18910681 198.92665736 -178.18673706 193.63090515 C-178.18053426 183.61561485 -178.16413975 173.60036849 -178.14403808 163.58509749 C-178.12164164 152.17756863 -178.11067625 140.7700376 -178.10064721 129.3624922 C-178.07977242 105.90830383 -178.04461987 82.45415438 -178 59 C-134.57599534 44.15260399 -134.57599534 44.15260399 -116.23293495 37.99085808 C-113.35827279 37.0251745 -110.48405646 36.05817217 -107.60990906 35.09095764 C-100.49297972 32.69620201 -93.3754083 30.30335742 -86.2578125 27.9105835 C-80.18416507 25.86868177 -74.11077999 23.82600298 -68.03774643 21.78227615 C-66.05715105 21.11592608 -64.07645196 20.44988416 -62.0956459 19.78416061 C-51.62487634 16.26482744 -41.16311217 12.72248541 -30.72412109 9.10986328 C-29.83257796 8.80198285 -28.94103483 8.49410242 -28.02247524 8.17689228 C-23.83043828 6.72914419 -19.64050525 5.27589528 -15.454422 3.8110199 C-13.98296991 3.30156821 -12.51143272 2.79236223 -11.03979492 2.28344727 C-10.04952207 1.93288993 -10.04952207 1.93288993 -9.0392437 1.57525063 C-5.78051557 0.45564617 -3.50779717 0 0 0 Z " fill="#4DB0FB" transform="translate(256,45)"/>
<path d="M0 0 C12.37643283 3.37539077 12.37643283 3.37539077 16.55517578 4.77075195 C17.5047818 5.08627518 18.45438782 5.4017984 19.43276978 5.72688293 C20.42690887 6.06064438 21.42104797 6.39440582 22.4453125 6.73828125 C23.51623138 7.0952861 24.58715027 7.45229095 25.69052124 7.82011414 C29.16974261 8.98109193 32.64741254 10.14663803 36.125 11.3125 C38.56962475 12.12966711 41.01428665 12.94672311 43.45898438 13.76367188 C58.29252957 18.72594125 73.1059048 23.74480484 87.89981079 28.82391357 C105.60324935 34.90046965 123.36234645 40.80814707 141.12890625 46.69726562 C142.23119064 47.06328384 143.33347504 47.42930206 144.46916199 47.80641174 C146.49483022 48.47898692 148.52091012 49.15032463 150.54756165 49.81993103 C160.40606755 53.09479998 170.20076721 56.55277137 180 60 C180.04682274 83.34039874 180.08203905 106.68078967 180.10362434 130.02122593 C180.11391535 140.85978838 180.12793388 151.69832157 180.15087891 162.53686523 C180.17087962 171.98914626 180.18373223 181.44140609 180.18817699 190.89370769 C180.19077309 195.89369423 180.19682926 200.89362011 180.21146011 205.89358711 C180.22514983 210.61065491 180.22919989 215.32763773 180.22621536 220.04472351 C180.22676047 221.76547649 180.23066948 223.48623265 180.23841095 225.20696831 C180.39050192 260.79272226 169.82313292 291.38055422 146 318 C144.79104431 319.4161356 143.58261928 320.8327246 142.375 322.25 C136.11125863 329.33010577 129.41490595 335.69301334 122.0234375 341.5859375 C119.95878696 343.23445693 117.92896355 344.89548741 115.9140625 346.6015625 C91.53180155 367.00377791 63.14174301 382.83162829 35.85229492 398.95019531 C26.8248677 404.28770929 17.87077327 409.72311697 9.015625 415.34375 C8.23960937 415.83230469 7.46359375 416.32085937 6.6640625 416.82421875 C5.66560303 417.45976685 5.66560303 417.45976685 4.64697266 418.1081543 C3 419 3 419 1 419 C1 382.7 1 346.4 1 309 C41.875 308.8125 41.875 308.8125 54.72998047 308.79223633 C58.56852641 308.76231892 58.56852641 308.76231892 62.40701294 308.72587585 C64.10236168 308.71288971 65.79780214 308.70951328 67.49319458 308.71403503 C83.28745422 308.77302528 83.28745422 308.77302528 96.4375 300.625 C100.84124704 293.22670497 101.43889404 287.67034451 101.40405273 279.13305664 C101.41091599 277.95494919 101.41777924 276.77684174 101.42485046 275.56303406 C101.43996614 272.34802284 101.44162614 269.13337719 101.43590808 265.91834569 C101.43280659 263.22711826 101.43891931 260.53594271 101.44494683 257.84472269 C101.45896879 251.49222195 101.45745029 245.13985576 101.44604492 238.78735352 C101.43456594 232.24967133 101.44864058 225.71239949 101.4754414 219.17477137 C101.49764425 213.54649705 101.50422551 207.91835111 101.49836498 202.29003614 C101.49500503 198.93512832 101.49906873 195.58069307 101.51461601 192.22578621 C101.52952028 188.4823277 101.51885144 184.73976857 101.50170898 180.99633789 C101.51137695 179.89530731 101.52104492 178.79427673 101.53100586 177.65988159 C101.45934007 170.17269634 100.31516242 164.76590819 95.21875 158.9765625 C94.6515625 158.53054687 94.084375 158.08453125 93.5 157.625 C92.9328125 157.16351563 92.365625 156.70203125 91.78125 156.2265625 C88.34818869 153.86256853 85.63901118 152.75563559 81.453125 152.5859375 C80.18662109 152.52792969 80.18662109 152.52792969 78.89453125 152.46875 C78.02183594 152.4378125 77.14914062 152.406875 76.25 152.375 C74.91775391 152.31699219 74.91775391 152.31699219 73.55859375 152.2578125 C71.3726002 152.16379127 69.18660938 152.07813857 67 152 C66.9906543 150.72060547 66.98130859 149.44121094 66.97167969 148.12304688 C66.93129693 143.29930939 66.86541337 138.47617792 66.79248047 133.65283203 C66.7645472 131.57967005 66.74319782 129.50640704 66.72900391 127.43310547 C66.56057672 104.20138165 62.91153334 83.57788995 45.84375 66.5859375 C32.9214189 54.83513642 18.06755631 51.0119217 1 48 C0.67 32.16 0.34 16.32 0 0 Z " fill="#2A91F9" transform="translate(255,44)"/>
<path d="M0 0 C1.43831507 -0.00079205 2.87662991 -0.0028929 4.31494141 -0.00619507 C8.20621825 -0.01130983 12.09722856 0.00217465 15.98846269 0.01933193 C20.08350325 0.03445338 24.17854154 0.0331962 28.27360535 0.03399658 C35.16080211 0.03768536 42.04789902 0.05262115 48.93505859 0.07519531 C57.71939018 0.103933 66.5036409 0.11440928 75.28801441 0.11887741 C82.89515256 0.12289193 90.5022738 0.13539665 98.10939956 0.14922428 C100.52527753 0.1532828 102.94115495 0.15622901 105.35703468 0.15901947 C115.14416574 0.17253 124.92916617 0.2338233 134.71557617 0.35644531 C136.28664942 0.36980675 136.28664942 0.36980675 137.88946152 0.38343811 C140.54489349 0.413995 143.19672569 0.4770697 145.85107422 0.55664062 C146.559894 0.56157909 147.26871378 0.56651756 147.99901295 0.57160568 C154.420088 0.84705503 159.11189959 3.98398325 163.73901367 8.20019531 C164.1850293 8.74675781 164.63104492 9.29332031 165.09057617 9.85644531 C165.78280273 10.67628906 165.78280273 10.67628906 166.48901367 11.51269531 C169.06228813 15.38080214 169.96542236 18.91137163 169.98973083 23.52201843 C169.99970596 24.54096695 170.00968109 25.55991547 170.0199585 26.60974121 C170.02062317 27.71684448 170.02128784 28.82394775 170.02197266 29.96459961 C170.03029617 31.13920242 170.03861969 32.31380524 170.04719543 33.52400208 C170.06714304 36.73918314 170.07793304 39.95421399 170.08302188 43.16944861 C170.0866727 45.18219414 170.09291663 47.19491504 170.10002327 49.20765114 C170.12450468 56.24122834 170.13756591 63.27473199 170.14111328 70.30834961 C170.14474308 76.84486436 170.1746013 83.380908 170.21651787 89.91727895 C170.25132333 95.54383262 170.26666352 101.17023102 170.26735932 106.79689151 C170.26814897 110.15091832 170.2791406 113.50408528 170.30535698 116.85806847 C170.33231813 120.60623091 170.32742965 124.35310731 170.31494141 128.10131836 C170.33719284 129.74679153 170.33719284 129.74679153 170.3598938 131.42550659 C170.28568572 139.27713423 168.57291073 145.92730507 163.30824947 151.97239208 C157.73905818 156.98712031 151.83403808 158.72763191 144.52519226 158.75758362 C143.8361466 158.76438029 143.14710093 158.77117696 142.4371751 158.77817959 C140.14659917 158.79704951 137.85656262 158.79472151 135.56591797 158.79223633 C133.91610025 158.80122029 132.26628881 158.81143 130.6164856 158.82276917 C126.14732901 158.84920883 121.67834489 158.85630008 117.20911765 158.85821652 C114.41341417 158.86035262 111.61775419 158.86676423 108.82206154 158.87470818 C99.05875502 158.9024419 89.29557117 158.9147162 79.53222656 158.91235352 C70.44743667 158.91055183 61.36318156 158.94220044 52.27852696 158.98958451 C44.46510526 159.02887818 36.65185789 159.0449024 28.8383382 159.04298729 C24.17771095 159.04222428 19.51755923 159.05066899 14.85703087 159.08252144 C10.47120411 159.11167966 6.0863037 159.11172589 1.70044327 159.08997154 C0.09690426 159.08684807 -1.5066936 159.09383927 -3.11013222 159.11205292 C-12.45528845 159.21127519 -19.90361574 158.66266923 -27.28442383 152.35644531 C-34.24993459 144.87174446 -34.58331751 136.6960128 -34.57495117 126.88842773 C-34.5816684 125.75254715 -34.58838562 124.61666656 -34.5953064 123.44636536 C-34.6142618 119.70150342 -34.61820938 115.95682095 -34.62036133 112.21191406 C-34.62679086 109.60028511 -34.63351934 106.98865687 -34.64053345 104.37702942 C-34.6533009 98.90555661 -34.65630076 93.43413217 -34.6550293 87.96264648 C-34.65382881 81.65904704 -34.67491969 75.35579048 -34.70651662 69.05227774 C-34.73593125 62.9648615 -34.74300241 56.87760846 -34.74180984 50.79012489 C-34.74416406 48.21103834 -34.75297739 45.63194902 -34.76847458 43.05290794 C-34.78815627 39.43920122 -34.78228693 35.82636847 -34.77026367 32.21264648 C-34.78150269 31.15620941 -34.7927417 30.09977234 -34.80432129 29.01132202 C-34.73864984 21.21041325 -33.28661829 14.23533101 -28.42504883 7.95410156 C-27.80114258 7.4475 -27.17723633 6.94089844 -26.53442383 6.41894531 C-25.92083008 5.89429688 -25.30723633 5.36964844 -24.67504883 4.82910156 C-16.65792908 -0.109549 -9.17873259 -0.06526159 0 0 Z " fill="#FBDA35" transform="translate(187.284423828125,194.6435546875)"/>
<path d="M0 0 C1.54880859 -0.00483398 1.54880859 -0.00483398 3.12890625 -0.00976562 C19.80961511 0.10710558 35.52582375 7.09796752 47.625 18.5625 C69.98256413 42.11779078 66.875 70.39598461 66.875 102.3125 C23.315 102.3125 -20.245 102.3125 -65.125 102.3125 C-65.125 39.39568584 -65.125 39.39568584 -44.91796875 17.97265625 C-40.24638912 13.44052675 -35.31785143 10.02026118 -29.625 6.9375 C-29.03259521 6.61571777 -28.44019043 6.29393555 -27.82983398 5.96240234 C-18.69983391 1.27533023 -10.2125669 -0.16057495 0 0 Z " fill="#FBFDFE" transform="translate(255.125,92.6875)"/>
<path d="M0 0 C9.18402567 5.52126802 15.76438434 13.12164645 18.64453125 23.58984375 C19.73549821 31.49048365 19.30471212 39.518712 19.08203125 47.46484375 C18.93765625 54.76609375 18.79328125 62.06734375 18.64453125 69.58984375 C-5.11546875 69.58984375 -28.87546875 69.58984375 -53.35546875 69.58984375 C-53.49984375 62.28859375 -53.64421875 54.98734375 -53.79296875 47.46484375 C-53.85669678 45.19077637 -53.9204248 42.91670898 -53.98608398 40.57373047 C-54.20182275 27.34500513 -53.15333621 17.36033494 -44.14233398 7.06005859 C-32.30836847 -4.7497936 -14.9584242 -7.38712878 0 0 Z " fill="#4EB1FC" transform="translate(273.35546875,125.41015625)"/>
<path d="M0 0 C3.49954984 -0.14671745 6.99829703 -0.23453588 10.5 -0.3125 C11.48226563 -0.35439453 12.46453125 -0.39628906 13.4765625 -0.43945312 C21.55641762 -0.57411738 26.11438609 1.45944061 32.0234375 6.84375 C32.46945312 7.3903125 32.91546875 7.936875 33.375 8.5 C33.83648437 9.0465625 34.29796875 9.593125 34.7734375 10.15625 C37.34671196 14.02435683 38.24984619 17.55492632 38.27415466 22.16557312 C38.28412979 23.18452164 38.29410492 24.20347015 38.30438232 25.2532959 C38.305047 26.36039917 38.30571167 27.46750244 38.30639648 28.6081543 C38.31472 29.78275711 38.32304352 30.95735992 38.33161926 32.16755676 C38.35156686 35.38273782 38.36235687 38.59776868 38.36744571 41.8130033 C38.37109653 43.82574882 38.37734046 45.83846973 38.3844471 47.85120583 C38.40892851 54.88478303 38.42198974 61.91828668 38.42553711 68.9519043 C38.42916691 75.48841905 38.45902513 82.02446269 38.50094169 88.56083363 C38.53574715 94.18738731 38.55108734 99.8137857 38.55178314 105.4404462 C38.5525728 108.79447301 38.56356442 112.14763997 38.58978081 115.50162315 C38.61674196 119.24978559 38.61185348 122.996662 38.59936523 126.74487305 C38.61419952 127.84185516 38.62903381 128.93883728 38.64431763 130.06906128 C38.57010955 137.92068891 36.85733456 144.57085976 31.5926733 150.61594677 C24.66664496 156.85242673 17.93005653 157.42388736 9.0625 157.1875 C8.09248047 157.17396484 7.12246094 157.16042969 6.12304688 157.14648438 C3.74810871 157.11138677 1.37435622 157.06222275 -1 157 C-0.071875 156.53835449 -0.071875 156.53835449 0.875 156.06738281 C8.08184185 152.44740205 12.74690591 149.15951326 16.08538818 141.51449585 C17.37575166 136.55613318 17.27828191 131.8088371 17.25878906 126.70556641 C17.2622937 125.57637283 17.26579834 124.44717926 17.26940918 123.2837677 C17.27820115 119.55630316 17.27238535 115.82902893 17.265625 112.1015625 C17.26697256 109.50613366 17.26891386 106.91070507 17.27142334 104.3152771 C17.27437133 98.87649906 17.27027956 93.43779224 17.26074219 87.99902344 C17.24986963 81.72674586 17.25337668 75.45459845 17.264395 69.18232405 C17.27459534 63.13175842 17.27347609 57.08125603 17.26763153 51.03068161 C17.26629954 48.46391151 17.26792694 45.89713807 17.27259064 43.33037186 C17.27768473 39.73790011 17.26990434 36.14567602 17.25878906 32.55322266 C17.26283752 31.49737473 17.26688599 30.44152679 17.27105713 29.35368347 C17.22259018 20.87330863 16.46437536 13.86950045 11 7 C7.57939034 3.75942243 4.52680167 2.26329349 0 1 C0 0.67 0 0.34 0 0 Z " fill="#FBC62F" transform="translate(319,196)"/>
<path d="M0 0 C9.88277312 0 17.03192928 2.26349764 24.8125 8.4375 C34.5728671 18.34059731 36.73619645 28.00712004 36.66816711 41.48628235 C36.61463921 44.61683929 36.5270514 47.74528707 36.4375 50.875 C36.40231486 53.02729257 36.37038867 55.179641 36.34179688 57.33203125 C36.27140356 62.5572261 36.13436962 67.77451484 36 73 C24.12 73 12.24 73 0 73 C0 48.91 0 24.82 0 0 Z " fill="#2A92FA" transform="translate(256,122)"/>
<path d="M0 0 C4.34859078 2.65973845 7.11985021 6.5983279 9.08203125 11.2734375 C10.08608234 18.079847 9.36672744 23.09525368 5.37109375 28.71484375 C4.08203125 30.2734375 4.08203125 30.2734375 2.08203125 32.2734375 C1.75861455 35.28367063 1.75861455 35.28367063 1.7734375 38.8203125 C1.74826125 40.1536499 1.72286348 41.48698313 1.69726562 42.8203125 C1.66862133 44.91795614 1.64460241 47.01552676 1.62573242 49.11328125 C1.60393132 51.1410233 1.56446728 53.16788118 1.5234375 55.1953125 C1.50998291 56.40799805 1.49652832 57.62068359 1.48266602 58.87011719 C1.03855235 62.64278294 0.07430878 65.05367791 -1.91796875 68.2734375 C-6.14791491 71.0934016 -9.95017323 71.06574938 -14.91796875 70.2734375 C-18.26421899 67.74667711 -19.59774722 66.23410208 -20.91796875 62.2734375 C-21.01093646 60.06004935 -21.04969151 57.84422809 -21.05859375 55.62890625 C-21.07792969 54.31212891 -21.09726563 52.99535156 -21.1171875 51.63867188 C-21.14610152 49.55171689 -21.1679676 47.46583015 -21.16845703 45.37866211 C-20.77522482 36.403326 -20.77522482 36.403326 -24.33984375 28.57421875 C-25.190625 27.81496094 -26.04140625 27.05570312 -26.91796875 26.2734375 C-29.85713825 21.61529918 -29.52301498 16.60540739 -28.91796875 11.2734375 C-26.87531486 5.04102194 -22.10939571 0.99189817 -16.48046875 -2.0390625 C-10.32032425 -3.69178419 -5.61676678 -2.69834452 0 0 Z " fill="#FEFEFC" transform="translate(265.91796875,242.7265625)"/>
<path d="M0 0 C-1.19534912 2.82537064 -2.56124041 4.67075074 -4.5625 7.0625 C-8.32814109 11.60058029 -8.38960194 15.43503451 -8.359375 21.1328125 C-7.68768381 26.49174006 -4.7347187 30.2652813 -1 34 C-0.71289062 36.88574219 -0.71289062 36.88574219 -0.65625 40.546875 C-0.6416272 41.19569641 -0.62700439 41.84451782 -0.61193848 42.51300049 C-0.56539744 44.5919373 -0.53125561 46.6707806 -0.5 48.75 C-0.45862629 51.47429952 -0.40478038 54.19795293 -0.34375 56.921875 C-0.31571289 58.74090332 -0.31571289 58.74090332 -0.28710938 60.59667969 C0.00648283 64.07684575 0.58023814 66.8096976 2 70 C3.485 70.495 3.485 70.495 5 71 C4.01 71.99 4.01 71.99 3 73 C-1.42158491 72.91657387 -3.46826387 72.45081976 -6.875 69.5625 C-10.20003554 65.55289833 -10.11183811 63.44447154 -10.10546875 58.26953125 C-10.11893408 56.89516668 -10.13395892 55.52081668 -10.15039062 54.14648438 C-10.17314048 51.9847592 -10.18757049 49.82466961 -10.17504883 47.6628418 C-9.82072243 38.01427585 -9.82072243 38.01427585 -13.98828125 29.69921875 C-14.52622314 29.22701904 -15.06416504 28.75481934 -15.6184082 28.26831055 C-17.74183425 26.31899118 -17.97549078 24.30023798 -18.203125 21.51171875 C-18.36647913 11.66963234 -18.36647913 11.66963234 -15 7 C-10.0449005 2.1366616 -7.08661633 -0.15405688 0 0 Z " fill="#FCC72F" transform="translate(246,241)"/>
</svg>
